<?xml version='1.0' encoding='utf-8'?>
<svg xmlns="http://www.w3.org/2000/svg" xmlns:dc="http://purl.org/dc/elements/1.1/" xmlns:ns2="http://creativecommons.org/ns#" xmlns:rdf="http://www.w3.org/1999/02/22-rdf-syntax-ns#" xmlns:xlink="http://www.w3.org/1999/xlink" width="392.87952pt" height="212.87952pt" viewBox="0 0 392.87952 212.87952" version="1.1">
 <metadata>
  <rdf:RDF>
   <ns2:Work>
    <dc:type rdf:resource="http://purl.org/dc/dcmitype/StillImage" />
    <dc:date>2026-09-17T00:23:23.037579</dc:date>
    <dc:format>image/svg+xml</dc:format>
    <dc:creator>
     <ns2:Agent>
      <dc:title>Matplotlib v3.10.8, https://matplotlib.org/</dc:title>
     </ns2:Agent>
    </dc:creator>
   </ns2:Work>
  </rdf:RDF>
 </metadata>
 <defs>
  <style type="text/css">*{stroke-linejoin: round; stroke-linecap: butt}</style>
 </defs>
 <g id="patch_1">
   <path d="M 0 212.87952  L 392.87952 212.87952  L 392.87952 0  L 0 0  z " style="fill: #ffffff" />
  </g>
  <g id="axes_1">
   <g id="patch_2">
    <path d="M 51.023437 189.888895  L 215.023828 189.888895  L 215.023828 37.287668  L 51.023437 37.287668  z " style="fill: #ffffff" />
   </g>
   <g id="matplotlib.axis_1">
    <g id="xtick_1">
     <g id="line2d_1">
      <defs>
       <path id="m5121e1cf49" d="M 0 0  L 0 2.5  " style="stroke: #000000; stroke-width: 0.6" />
      </defs>
      <use xlink:href="#m5121e1cf49" x="74.572003" y="189.888895" style="stroke: #000000; stroke-width: 0.6" />
      </g>
     <g id="text_1">
      <text style="font-size: 6px; font-family: 'Liberation Sans', 'Arial', 'Helvetica', 'Nimbus Sans', 'DejaVu Sans', sans-serif; text-anchor: middle" x="74.572003" y="200.23702" transform="rotate(-0 74.572003 200.23702)">−0.4</text>
     </g>
    </g>
    <g id="xtick_2">
     <g id="line2d_2">
      <use xlink:href="#m5121e1cf49" x="99.733713" y="189.888895" style="stroke: #000000; stroke-width: 0.6" />
      </g>
     <g id="text_2">
      <text style="font-size: 6px; font-family: 'Liberation Sans', 'Arial', 'Helvetica', 'Nimbus Sans', 'DejaVu Sans', sans-serif; text-anchor: middle" x="99.733713" y="200.23702" transform="rotate(-0 99.733713 200.23702)">−0.2</text>
     </g>
    </g>
    <g id="xtick_3">
     <g id="line2d_3">
      <use xlink:href="#m5121e1cf49" x="124.895423" y="189.888895" style="stroke: #000000; stroke-width: 0.6" />
      </g>
     <g id="text_3">
      <text style="font-size: 6px; font-family: 'Liberation Sans', 'Arial', 'Helvetica', 'Nimbus Sans', 'DejaVu Sans', sans-serif; text-anchor: middle" x="124.895423" y="200.23702" transform="rotate(-0 124.895423 200.23702)">0.0</text>
     </g>
    </g>
    <g id="xtick_4">
     <g id="line2d_4">
      <use xlink:href="#m5121e1cf49" x="150.057134" y="189.888895" style="stroke: #000000; stroke-width: 0.6" />
      </g>
     <g id="text_4">
      <text style="font-size: 6px; font-family: 'Liberation Sans', 'Arial', 'Helvetica', 'Nimbus Sans', 'DejaVu Sans', sans-serif; text-anchor: middle" x="150.057134" y="200.23702" transform="rotate(-0 150.057134 200.23702)">0.2</text>
     </g>
    </g>
    <g id="xtick_5">
     <g id="line2d_5">
      <use xlink:href="#m5121e1cf49" x="175.218844" y="189.888895" style="stroke: #000000; stroke-width: 0.6" />
      </g>
     <g id="text_5">
      <text style="font-size: 6px; font-family: 'Liberation Sans', 'Arial', 'Helvetica', 'Nimbus Sans', 'DejaVu Sans', sans-serif; text-anchor: middle" x="175.218844" y="200.23702" transform="rotate(-0 175.218844 200.23702)">0.4</text>
     </g>
    </g>
    <g id="xtick_6">
     <g id="line2d_6">
      <use xlink:href="#m5121e1cf49" x="200.380554" y="189.888895" style="stroke: #000000; stroke-width: 0.6" />
      </g>
     <g id="text_6">
      <text style="font-size: 6px; font-family: 'Liberation Sans', 'Arial', 'Helvetica', 'Nimbus Sans', 'DejaVu Sans', sans-serif; text-anchor: middle" x="200.380554" y="200.23702" transform="rotate(-0 200.380554 200.23702)">0.6</text>
     </g>
    </g>
    <g id="text_7">
     <text style="font-size: 8px; font-family: 'Liberation Sans', 'Arial', 'Helvetica', 'Nimbus Sans', 'DejaVu Sans', sans-serif; text-anchor: middle" x="133.023633" y="209.77952" transform="rotate(-0 133.023633 209.77952)">Spearman ρ (higher is better)</text>
    </g>
   </g>
   <g id="matplotlib.axis_2">
    <g id="ytick_1">
     <g id="line2d_7">
      <defs>
       <path id="m97dba7cb88" d="M 0 0  L -2.5 0  " style="stroke: #000000; stroke-width: 0.6" />
      </defs>
      <use xlink:href="#m97dba7cb88" x="51.023437" y="56.362821" style="stroke: #000000; stroke-width: 0.6" />
      </g>
     <g id="text_8">
      <text style="font-size: 6px; font-family: 'Liberation Sans', 'Arial', 'Helvetica', 'Nimbus Sans', 'DejaVu Sans', sans-serif; text-anchor: end" x="45.023437" y="58.536883" transform="rotate(-0 45.023437 58.536883)">KOT</text>
     </g>
    </g>
    <g id="ytick_2">
     <g id="line2d_8">
      <use xlink:href="#m97dba7cb88" x="51.023437" y="94.513128" style="stroke: #000000; stroke-width: 0.6" />
      </g>
     <g id="text_9">
      <text style="font-size: 6px; font-family: 'Liberation Sans', 'Arial', 'Helvetica', 'Nimbus Sans', 'DejaVu Sans', sans-serif; text-anchor: end" x="45.023437" y="96.68719" transform="rotate(-0 45.023437 96.68719)">No kinetics</text>
     </g>
    </g>
    <g id="ytick_3">
     <g id="line2d_9">
      <use xlink:href="#m97dba7cb88" x="51.023437" y="132.663435" style="stroke: #000000; stroke-width: 0.6" />
      </g>
     <g id="text_10">
      <text style="font-size: 6px; font-family: 'Liberation Sans', 'Arial', 'Helvetica', 'Nimbus Sans', 'DejaVu Sans', sans-serif; text-anchor: end" x="45.023437" y="134.837497" transform="rotate(-0 45.023437 134.837497)">Shuffled velocity</text>
     </g>
    </g>
    <g id="ytick_4">
     <g id="line2d_10">
      <use xlink:href="#m97dba7cb88" x="51.023437" y="170.813742" style="stroke: #000000; stroke-width: 0.6" />
      </g>
     <g id="text_11">
      <text style="font-size: 6px; font-family: 'Liberation Sans', 'Arial', 'Helvetica', 'Nimbus Sans', 'DejaVu Sans', sans-serif; text-anchor: end" x="45.023437" y="172.987804" transform="rotate(-0 45.023437 172.987804)">Zero change</text>
     </g>
    </g>
   </g>
   <g id="line2d_11">
    <path d="M 124.895423 189.888895  L 124.895423 37.287668  " style="fill: none; stroke-dasharray: 2.59,1.12; stroke-dashoffset: 0; stroke: #a6a6a6; stroke-width: 0.7" />
   </g>
   <g id="patch_3">
    <path d="M 51.023437 189.888895  L 51.023437 37.287668  " style="fill: none; stroke: #000000; stroke-width: 0.6; stroke-linejoin: miter; stroke-linecap: square" />
   </g>
   <g id="patch_4">
    <path d="M 51.023437 189.888895  L 215.023828 189.888895  " style="fill: none; stroke: #000000; stroke-width: 0.6; stroke-linejoin: miter; stroke-linecap: square" />
   </g>
   <g id="PathCollection_1">
    <defs>
     <path id="C0_0_a2d3cc7f50" d="M 0 1.414214  C 0.375054 1.414214 0.734797 1.265203 1 1  C 1.265203 0.734797 1.414214 0.375054 1.414214 -0  C 1.414214 -0.375054 1.265203 -0.734797 1 -1  C 0.734797 -1.265203 0.375054 -1.414214 0 -1.414214  C -0.375054 -1.414214 -0.734797 -1.265203 -1 -1  C -1.265203 -0.734797 -1.414214 -0.375054 -1.414214 0  C -1.414214 0.375054 -1.265203 0.734797 -1 1  C -0.734797 1.265203 -0.375054 1.414214 0 1.414214  z " />
    </defs>
    <use xlink:href="#C0_0_a2d3cc7f50" x="183.405512" y="52.54779" style="fill: #0072b2; fill-opacity: 0.4" />
    <use xlink:href="#C0_0_a2d3cc7f50" x="178.455518" y="53.241432" style="fill: #0072b2; fill-opacity: 0.4" />
    <use xlink:href="#C0_0_a2d3cc7f50" x="183.587296" y="53.935074" style="fill: #0072b2; fill-opacity: 0.4" />
    <use xlink:href="#C0_0_a2d3cc7f50" x="172.802018" y="54.628716" style="fill: #0072b2; fill-opacity: 0.4" />
    <use xlink:href="#C0_0_a2d3cc7f50" x="177.388443" y="55.322358" style="fill: #0072b2; fill-opacity: 0.4" />
    <use xlink:href="#C0_0_a2d3cc7f50" x="174.578053" y="56.016" style="fill: #0072b2; fill-opacity: 0.4" />
    <use xlink:href="#C0_0_a2d3cc7f50" x="176.528602" y="56.709642" style="fill: #0072b2; fill-opacity: 0.4" />
    <use xlink:href="#C0_0_a2d3cc7f50" x="180.842349" y="57.403284" style="fill: #0072b2; fill-opacity: 0.4" />
    <use xlink:href="#C0_0_a2d3cc7f50" x="182.278448" y="58.096926" style="fill: #0072b2; fill-opacity: 0.4" />
    <use xlink:href="#C0_0_a2d3cc7f50" x="180.942331" y="58.790568" style="fill: #0072b2; fill-opacity: 0.4" />
    <use xlink:href="#C0_0_a2d3cc7f50" x="176.015969" y="59.48421" style="fill: #0072b2; fill-opacity: 0.4" />
    <use xlink:href="#C0_0_a2d3cc7f50" x="175.072507" y="60.177852" style="fill: #0072b2; fill-opacity: 0.4" />
    </g>
   <g id="PathCollection_2">
    <defs>
     <path id="C1_0_b1bb8f159a" d="M 0 1.414214  C 0.375054 1.414214 0.734797 1.265203 1 1  C 1.265203 0.734797 1.414214 0.375054 1.414214 -0  C 1.414214 -0.375054 1.265203 -0.734797 1 -1  C 0.734797 -1.265203 0.375054 -1.414214 0 -1.414214  C -0.375054 -1.414214 -0.734797 -1.265203 -1 -1  C -1.265203 -0.734797 -1.414214 -0.375054 -1.414214 0  C -1.414214 0.375054 -1.265203 0.734797 -1 1  C -0.734797 1.265203 -0.375054 1.414214 0 1.414214  z " />
    </defs>
    <use xlink:href="#C1_0_b1bb8f159a" x="102.176897" y="90.698097" style="fill: #777777; fill-opacity: 0.4" />
    <use xlink:href="#C1_0_b1bb8f159a" x="99.766434" y="91.391739" style="fill: #777777; fill-opacity: 0.4" />
    <use xlink:href="#C1_0_b1bb8f159a" x="108.555718" y="92.085381" style="fill: #777777; fill-opacity: 0.4" />
    <use xlink:href="#C1_0_b1bb8f159a" x="101.200714" y="92.779023" style="fill: #777777; fill-opacity: 0.4" />
    <use xlink:href="#C1_0_b1bb8f159a" x="106.288864" y="93.472665" style="fill: #777777; fill-opacity: 0.4" />
    <use xlink:href="#C1_0_b1bb8f159a" x="105.34722" y="94.166307" style="fill: #777777; fill-opacity: 0.4" />
    <use xlink:href="#C1_0_b1bb8f159a" x="102.324143" y="94.859949" style="fill: #777777; fill-opacity: 0.4" />
    <use xlink:href="#C1_0_b1bb8f159a" x="104.009286" y="95.553591" style="fill: #777777; fill-opacity: 0.4" />
    <use xlink:href="#C1_0_b1bb8f159a" x="97.363242" y="96.247233" style="fill: #777777; fill-opacity: 0.4" />
    <use xlink:href="#C1_0_b1bb8f159a" x="105.847128" y="96.940875" style="fill: #777777; fill-opacity: 0.4" />
    <use xlink:href="#C1_0_b1bb8f159a" x="118.315731" y="97.634517" style="fill: #777777; fill-opacity: 0.4" />
    <use xlink:href="#C1_0_b1bb8f159a" x="100.780792" y="98.328159" style="fill: #777777; fill-opacity: 0.4" />
    </g>
   <g id="PathCollection_3">
    <defs>
     <path id="C2_0_5c3bccc431" d="M 0 1.414214  C 0.375054 1.414214 0.734797 1.265203 1 1  C 1.265203 0.734797 1.414214 0.375054 1.414214 -0  C 1.414214 -0.375054 1.265203 -0.734797 1 -1  C 0.734797 -1.265203 0.375054 -1.414214 0 -1.414214  C -0.375054 -1.414214 -0.734797 -1.265203 -1 -1  C -1.265203 -0.734797 -1.414214 -0.375054 -1.414214 0  C -1.414214 0.375054 -1.265203 0.734797 -1 1  C -0.734797 1.265203 -0.375054 1.414214 0 1.414214  z " />
    </defs>
    <use xlink:href="#C2_0_5c3bccc431" x="141.818657" y="128.848404" style="fill: #d55e00; fill-opacity: 0.4" />
    <use xlink:href="#C2_0_5c3bccc431" x="120.749826" y="129.542046" style="fill: #d55e00; fill-opacity: 0.4" />
    <use xlink:href="#C2_0_5c3bccc431" x="127.664911" y="130.235688" style="fill: #d55e00; fill-opacity: 0.4" />
    <use xlink:href="#C2_0_5c3bccc431" x="119.664572" y="130.92933" style="fill: #d55e00; fill-opacity: 0.4" />
    <use xlink:href="#C2_0_5c3bccc431" x="120.655298" y="131.622972" style="fill: #d55e00; fill-opacity: 0.4" />
    <use xlink:href="#C2_0_5c3bccc431" x="104.083818" y="132.316614" style="fill: #d55e00; fill-opacity: 0.4" />
    <use xlink:href="#C2_0_5c3bccc431" x="120.886165" y="133.010256" style="fill: #d55e00; fill-opacity: 0.4" />
    <use xlink:href="#C2_0_5c3bccc431" x="137.232233" y="133.703898" style="fill: #d55e00; fill-opacity: 0.4" />
    <use xlink:href="#C2_0_5c3bccc431" x="105.225425" y="134.39754" style="fill: #d55e00; fill-opacity: 0.4" />
    <use xlink:href="#C2_0_5c3bccc431" x="89.557413" y="135.091181" style="fill: #d55e00; fill-opacity: 0.4" />
    <use xlink:href="#C2_0_5c3bccc431" x="122.325898" y="135.784823" style="fill: #d55e00; fill-opacity: 0.4" />
    <use xlink:href="#C2_0_5c3bccc431" x="109.481001" y="136.478465" style="fill: #d55e00; fill-opacity: 0.4" />
    </g>
   <g id="text_12">
    <text style="font-size: 6px; font-family: 'Liberation Sans', 'Arial', 'Helvetica', 'Nimbus Sans', 'DejaVu Sans', sans-serif; text-anchor: start; fill: #666666" x="59.223457" y="172.365304" transform="rotate(-0 59.223457 172.365304)">Undefined: constant prediction</text>
   </g>
   <g id="text_13">
    <text style="font-weight: 700; font-size: 9px; font-family: 'Liberation Sans', 'Arial', 'Helvetica', 'Nimbus Sans', 'DejaVu Sans', sans-serif; text-anchor: start" x="51.023437" y="21.420168" transform="rotate(-0 51.023437 21.420168)">a</text>
   </g>
   <g id="text_14">
    <text style="font-size: 8px; font-family: 'Liberation Sans', 'Arial', 'Helvetica', 'Nimbus Sans', 'DejaVu Sans', sans-serif; text-anchor: start" x="51.023437" y="33.287668" transform="rotate(-0 51.023437 33.287668)">Ranking</text>
   </g>
   <g id="line2d_12">
    <path d="M 136.282389 56.362821  L 207.569265 56.362821  " style="fill: none; stroke: #0072b2; stroke-width: 1.5; stroke-linecap: square" />
   </g>
   <g id="line2d_13">
    <path d="M 58.478001 94.513128  L 146.678336 94.513128  " style="fill: none; stroke: #777777; stroke-width: 1.5; stroke-linecap: square" />
   </g>
   <g id="line2d_14">
    <path d="M 83.789923 132.663435  L 161.672753 132.663435  " style="fill: none; stroke: #d55e00; stroke-width: 1.5; stroke-linecap: square" />
   </g>
   <g id="PathCollection_4">
    <defs>
     <path id="me4130cec39" d="M -0 2.828427  L 2.828427 0  L 0 -2.828427  L -2.828427 -0  z " style="stroke: #0072b2; stroke-width: 0.6" />
    </defs>
    <use xlink:href="#me4130cec39" x="178.957244" y="56.362821" style="fill: #0072b2; stroke: #0072b2; stroke-width: 0.6" />
    </g>
   <g id="PathCollection_5">
    <defs>
     <path id="m0982e22056" d="M -0 2.828427  L 2.828427 0  L 0 -2.828427  L -2.828427 -0  z " style="stroke: #777777; stroke-width: 0.6" />
    </defs>
    <use xlink:href="#m0982e22056" x="98.833879" y="94.513128" style="fill: #777777; stroke: #777777; stroke-width: 0.6" />
    </g>
   <g id="PathCollection_6">
    <defs>
     <path id="m9ef0449227" d="M -0 2.828427  L 2.828427 0  L 0 -2.828427  L -2.828427 -0  z " style="stroke: #d55e00; stroke-width: 0.6" />
    </defs>
    <use xlink:href="#m9ef0449227" x="122.562218" y="132.663435" style="fill: #d55e00; stroke: #d55e00; stroke-width: 0.6" />
    </g>
  </g>
  <g id="axes_2">
   <g id="patch_5">
    <path d="M 223.524308 189.888895  L 387.524699 189.888895  L 387.524699 37.287668  L 223.524308 37.287668  z " style="fill: #ffffff" />
   </g>
   <g id="matplotlib.axis_3">
    <g id="xtick_7">
     <g id="line2d_15">
      <use xlink:href="#m5121e1cf49" x="238.843928" y="189.888895" style="stroke: #000000; stroke-width: 0.6" />
      </g>
     <g id="text_15">
      <text style="font-size: 6px; font-family: 'Liberation Sans', 'Arial', 'Helvetica', 'Nimbus Sans', 'DejaVu Sans', sans-serif; text-anchor: middle" x="238.843928" y="200.23702" transform="rotate(-0 238.843928 200.23702)">0.8</text>
     </g>
    </g>
    <g id="xtick_8">
     <g id="line2d_16">
      <use xlink:href="#m5121e1cf49" x="257.397127" y="189.888895" style="stroke: #000000; stroke-width: 0.6" />
      </g>
     <g id="text_16">
      <text style="font-size: 6px; font-family: 'Liberation Sans', 'Arial', 'Helvetica', 'Nimbus Sans', 'DejaVu Sans', sans-serif; text-anchor: middle" x="257.397127" y="200.23702" transform="rotate(-0 257.397127 200.23702)">0.9</text>
     </g>
    </g>
    <g id="xtick_9">
     <g id="line2d_17">
      <use xlink:href="#m5121e1cf49" x="275.950326" y="189.888895" style="stroke: #000000; stroke-width: 0.6" />
      </g>
     <g id="text_17">
      <text style="font-size: 6px; font-family: 'Liberation Sans', 'Arial', 'Helvetica', 'Nimbus Sans', 'DejaVu Sans', sans-serif; text-anchor: middle" x="275.950326" y="200.23702" transform="rotate(-0 275.950326 200.23702)">1.0</text>
     </g>
    </g>
    <g id="xtick_10">
     <g id="line2d_18">
      <use xlink:href="#m5121e1cf49" x="294.503525" y="189.888895" style="stroke: #000000; stroke-width: 0.6" />
      </g>
     <g id="text_18">
      <text style="font-size: 6px; font-family: 'Liberation Sans', 'Arial', 'Helvetica', 'Nimbus Sans', 'DejaVu Sans', sans-serif; text-anchor: middle" x="294.503525" y="200.23702" transform="rotate(-0 294.503525 200.23702)">1.1</text>
     </g>
    </g>
    <g id="xtick_11">
     <g id="line2d_19">
      <use xlink:href="#m5121e1cf49" x="313.056724" y="189.888895" style="stroke: #000000; stroke-width: 0.6" />
      </g>
     <g id="text_19">
      <text style="font-size: 6px; font-family: 'Liberation Sans', 'Arial', 'Helvetica', 'Nimbus Sans', 'DejaVu Sans', sans-serif; text-anchor: middle" x="313.056724" y="200.23702" transform="rotate(-0 313.056724 200.23702)">1.2</text>
     </g>
    </g>
    <g id="xtick_12">
     <g id="line2d_20">
      <use xlink:href="#m5121e1cf49" x="331.609923" y="189.888895" style="stroke: #000000; stroke-width: 0.6" />
      </g>
     <g id="text_20">
      <text style="font-size: 6px; font-family: 'Liberation Sans', 'Arial', 'Helvetica', 'Nimbus Sans', 'DejaVu Sans', sans-serif; text-anchor: middle" x="331.609923" y="200.23702" transform="rotate(-0 331.609923 200.23702)">1.3</text>
     </g>
    </g>
    <g id="xtick_13">
     <g id="line2d_21">
      <use xlink:href="#m5121e1cf49" x="350.163122" y="189.888895" style="stroke: #000000; stroke-width: 0.6" />
      </g>
     <g id="text_21">
      <text style="font-size: 6px; font-family: 'Liberation Sans', 'Arial', 'Helvetica', 'Nimbus Sans', 'DejaVu Sans', sans-serif; text-anchor: middle" x="350.163122" y="200.23702" transform="rotate(-0 350.163122 200.23702)">1.4</text>
     </g>
    </g>
    <g id="xtick_14">
     <g id="line2d_22">
      <use xlink:href="#m5121e1cf49" x="368.716321" y="189.888895" style="stroke: #000000; stroke-width: 0.6" />
      </g>
     <g id="text_22">
      <text style="font-size: 6px; font-family: 'Liberation Sans', 'Arial', 'Helvetica', 'Nimbus Sans', 'DejaVu Sans', sans-serif; text-anchor: middle" x="368.716321" y="200.23702" transform="rotate(-0 368.716321 200.23702)">1.5</text>
     </g>
    </g>
    <g id="xtick_15">
     <g id="line2d_23">
      <use xlink:href="#m5121e1cf49" x="387.26952" y="189.888895" style="stroke: #000000; stroke-width: 0.6" />
      </g>
     <g id="text_23">
      <text style="font-size: 6px; font-family: 'Liberation Sans', 'Arial', 'Helvetica', 'Nimbus Sans', 'DejaVu Sans', sans-serif; text-anchor: middle" x="387.26952" y="200.23702" transform="rotate(-0 387.26952 200.23702)">1.6</text>
     </g>
    </g>
    <g id="text_24">
     <text style="font-size: 8px; font-family: 'Liberation Sans', 'Arial', 'Helvetica', 'Nimbus Sans', 'DejaVu Sans', sans-serif; text-anchor: middle" x="305.524503" y="209.77952" transform="rotate(-0 305.524503 209.77952)">Normalized RMSE (lower is better)</text>
    </g>
   </g>
   <g id="matplotlib.axis_4">
    <g id="ytick_5">
     <g id="line2d_24">
      <use xlink:href="#m97dba7cb88" x="223.524308" y="56.362821" style="stroke: #000000; stroke-width: 0.6" />
      </g>
    </g>
    <g id="ytick_6">
     <g id="line2d_25">
      <use xlink:href="#m97dba7cb88" x="223.524308" y="94.513128" style="stroke: #000000; stroke-width: 0.6" />
      </g>
    </g>
    <g id="ytick_7">
     <g id="line2d_26">
      <use xlink:href="#m97dba7cb88" x="223.524308" y="132.663435" style="stroke: #000000; stroke-width: 0.6" />
      </g>
    </g>
    <g id="ytick_8">
     <g id="line2d_27">
      <use xlink:href="#m97dba7cb88" x="223.524308" y="170.813742" style="stroke: #000000; stroke-width: 0.6" />
      </g>
    </g>
   </g>
   <g id="patch_6">
    <path d="M 223.524308 189.888895  L 223.524308 37.287668  " style="fill: none; stroke: #000000; stroke-width: 0.6; stroke-linejoin: miter; stroke-linecap: square" />
   </g>
   <g id="patch_7">
    <path d="M 223.524308 189.888895  L 387.524699 189.888895  " style="fill: none; stroke: #000000; stroke-width: 0.6; stroke-linejoin: miter; stroke-linecap: square" />
   </g>
   <g id="PathCollection_7">
    <defs>
     <path id="C3_0_4c1e70363c" d="M 0 1.414214  C 0.375054 1.414214 0.734797 1.265203 1 1  C 1.265203 0.734797 1.414214 0.375054 1.414214 -0  C 1.414214 -0.375054 1.265203 -0.734797 1 -1  C 0.734797 -1.265203 0.375054 -1.414214 0 -1.414214  C -0.375054 -1.414214 -0.734797 -1.265203 -1 -1  C -1.265203 -0.734797 -1.414214 -0.375054 -1.414214 0  C -1.414214 0.375054 -1.265203 0.734797 -1 1  C -0.734797 1.265203 -0.375054 1.414214 0 1.414214  z " />
    </defs>
    <use xlink:href="#C3_0_4c1e70363c" x="236.303579" y="52.54779" style="fill: #0072b2; fill-opacity: 0.4" />
    <use xlink:href="#C3_0_4c1e70363c" x="239.880932" y="53.241432" style="fill: #0072b2; fill-opacity: 0.4" />
    <use xlink:href="#C3_0_4c1e70363c" x="235.285705" y="53.935074" style="fill: #0072b2; fill-opacity: 0.4" />
    <use xlink:href="#C3_0_4c1e70363c" x="244.525736" y="54.628716" style="fill: #0072b2; fill-opacity: 0.4" />
    <use xlink:href="#C3_0_4c1e70363c" x="240.635507" y="55.322358" style="fill: #0072b2; fill-opacity: 0.4" />
    <use xlink:href="#C3_0_4c1e70363c" x="242.483185" y="56.016" style="fill: #0072b2; fill-opacity: 0.4" />
    <use xlink:href="#C3_0_4c1e70363c" x="240.280312" y="56.709642" style="fill: #0072b2; fill-opacity: 0.4" />
    <use xlink:href="#C3_0_4c1e70363c" x="235.492042" y="57.403284" style="fill: #0072b2; fill-opacity: 0.4" />
    <use xlink:href="#C3_0_4c1e70363c" x="235.648657" y="58.096926" style="fill: #0072b2; fill-opacity: 0.4" />
    <use xlink:href="#C3_0_4c1e70363c" x="238.307487" y="58.790568" style="fill: #0072b2; fill-opacity: 0.4" />
    <use xlink:href="#C3_0_4c1e70363c" x="241.194504" y="59.48421" style="fill: #0072b2; fill-opacity: 0.4" />
    <use xlink:href="#C3_0_4c1e70363c" x="240.524495" y="60.177852" style="fill: #0072b2; fill-opacity: 0.4" />
    </g>
   <g id="PathCollection_8">
    <defs>
     <path id="C4_0_41f8faf6e2" d="M 0 1.414214  C 0.375054 1.414214 0.734797 1.265203 1 1  C 1.265203 0.734797 1.414214 0.375054 1.414214 -0  C 1.414214 -0.375054 1.265203 -0.734797 1 -1  C 0.734797 -1.265203 0.375054 -1.414214 0 -1.414214  C -0.375054 -1.414214 -0.734797 -1.265203 -1 -1  C -1.265203 -0.734797 -1.414214 -0.375054 -1.414214 0  C -1.414214 0.375054 -1.265203 0.734797 -1 1  C -0.734797 1.265203 -0.375054 1.414214 0 1.414214  z " />
    </defs>
    <use xlink:href="#C4_0_41f8faf6e2" x="348.399106" y="90.698097" style="fill: #777777; fill-opacity: 0.4" />
    <use xlink:href="#C4_0_41f8faf6e2" x="347.298224" y="91.391739" style="fill: #777777; fill-opacity: 0.4" />
    <use xlink:href="#C4_0_41f8faf6e2" x="380.070135" y="92.085381" style="fill: #777777; fill-opacity: 0.4" />
    <use xlink:href="#C4_0_41f8faf6e2" x="353.646917" y="92.779023" style="fill: #777777; fill-opacity: 0.4" />
    <use xlink:href="#C4_0_41f8faf6e2" x="339.391809" y="93.472665" style="fill: #777777; fill-opacity: 0.4" />
    <use xlink:href="#C4_0_41f8faf6e2" x="338.077892" y="94.166307" style="fill: #777777; fill-opacity: 0.4" />
    <use xlink:href="#C4_0_41f8faf6e2" x="342.781895" y="94.859949" style="fill: #777777; fill-opacity: 0.4" />
    <use xlink:href="#C4_0_41f8faf6e2" x="356.249256" y="95.553591" style="fill: #777777; fill-opacity: 0.4" />
    <use xlink:href="#C4_0_41f8faf6e2" x="347.620607" y="96.247233" style="fill: #777777; fill-opacity: 0.4" />
    <use xlink:href="#C4_0_41f8faf6e2" x="339.68105" y="96.940875" style="fill: #777777; fill-opacity: 0.4" />
    <use xlink:href="#C4_0_41f8faf6e2" x="338.987162" y="97.634517" style="fill: #777777; fill-opacity: 0.4" />
    <use xlink:href="#C4_0_41f8faf6e2" x="351.779311" y="98.328159" style="fill: #777777; fill-opacity: 0.4" />
    </g>
   <g id="PathCollection_9">
    <defs>
     <path id="C5_0_0fa2cc1069" d="M 0 1.414214  C 0.375054 1.414214 0.734797 1.265203 1 1  C 1.265203 0.734797 1.414214 0.375054 1.414214 -0  C 1.414214 -0.375054 1.265203 -0.734797 1 -1  C 0.734797 -1.265203 0.375054 -1.414214 0 -1.414214  C -0.375054 -1.414214 -0.734797 -1.265203 -1 -1  C -1.265203 -0.734797 -1.414214 -0.375054 -1.414214 0  C -1.414214 0.375054 -1.265203 0.734797 -1 1  C -0.734797 1.265203 -0.375054 1.414214 0 1.414214  z " />
    </defs>
    <use xlink:href="#C5_0_0fa2cc1069" x="281.899886" y="128.848404" style="fill: #d55e00; fill-opacity: 0.4" />
    <use xlink:href="#C5_0_0fa2cc1069" x="292.411877" y="129.542046" style="fill: #d55e00; fill-opacity: 0.4" />
    <use xlink:href="#C5_0_0fa2cc1069" x="289.950743" y="130.235688" style="fill: #d55e00; fill-opacity: 0.4" />
    <use xlink:href="#C5_0_0fa2cc1069" x="292.338667" y="130.92933" style="fill: #d55e00; fill-opacity: 0.4" />
    <use xlink:href="#C5_0_0fa2cc1069" x="278.647908" y="131.622972" style="fill: #d55e00; fill-opacity: 0.4" />
    <use xlink:href="#C5_0_0fa2cc1069" x="294.451828" y="132.316614" style="fill: #d55e00; fill-opacity: 0.4" />
    <use xlink:href="#C5_0_0fa2cc1069" x="291.219407" y="133.010256" style="fill: #d55e00; fill-opacity: 0.4" />
    <use xlink:href="#C5_0_0fa2cc1069" x="286.086973" y="133.703898" style="fill: #d55e00; fill-opacity: 0.4" />
    <use xlink:href="#C5_0_0fa2cc1069" x="295.764266" y="134.39754" style="fill: #d55e00; fill-opacity: 0.4" />
    <use xlink:href="#C5_0_0fa2cc1069" x="299.689426" y="135.091181" style="fill: #d55e00; fill-opacity: 0.4" />
    <use xlink:href="#C5_0_0fa2cc1069" x="292.026355" y="135.784823" style="fill: #d55e00; fill-opacity: 0.4" />
    <use xlink:href="#C5_0_0fa2cc1069" x="294.386997" y="136.478465" style="fill: #d55e00; fill-opacity: 0.4" />
    </g>
   <g id="PathCollection_10">
    <defs>
     <path id="C6_0_fd539fed8e" d="M 0 1.414214  C 0.375054 1.414214 0.734797 1.265203 1 1  C 1.265203 0.734797 1.414214 0.375054 1.414214 -0  C 1.414214 -0.375054 1.265203 -0.734797 1 -1  C 0.734797 -1.265203 0.375054 -1.414214 0 -1.414214  C -0.375054 -1.414214 -0.734797 -1.265203 -1 -1  C -1.265203 -0.734797 -1.414214 -0.375054 -1.414214 0  C -1.414214 0.375054 -1.265203 0.734797 -1 1  C -0.734797 1.265203 -0.375054 1.414214 0 1.414214  z " />
    </defs>
    <use xlink:href="#C6_0_fd539fed8e" x="288.446204" y="166.998711" style="fill: #333333; fill-opacity: 0.4" />
    <use xlink:href="#C6_0_fd539fed8e" x="288.446204" y="167.692353" style="fill: #333333; fill-opacity: 0.4" />
    <use xlink:href="#C6_0_fd539fed8e" x="288.446204" y="168.385995" style="fill: #333333; fill-opacity: 0.4" />
    <use xlink:href="#C6_0_fd539fed8e" x="288.446204" y="169.079637" style="fill: #333333; fill-opacity: 0.4" />
    <use xlink:href="#C6_0_fd539fed8e" x="288.446204" y="169.773279" style="fill: #333333; fill-opacity: 0.4" />
    <use xlink:href="#C6_0_fd539fed8e" x="288.446204" y="170.466921" style="fill: #333333; fill-opacity: 0.4" />
    <use xlink:href="#C6_0_fd539fed8e" x="288.446204" y="171.160563" style="fill: #333333; fill-opacity: 0.4" />
    <use xlink:href="#C6_0_fd539fed8e" x="288.446204" y="171.854204" style="fill: #333333; fill-opacity: 0.4" />
    <use xlink:href="#C6_0_fd539fed8e" x="288.446204" y="172.547846" style="fill: #333333; fill-opacity: 0.4" />
    <use xlink:href="#C6_0_fd539fed8e" x="288.446204" y="173.241488" style="fill: #333333; fill-opacity: 0.4" />
    <use xlink:href="#C6_0_fd539fed8e" x="288.446204" y="173.93513" style="fill: #333333; fill-opacity: 0.4" />
    <use xlink:href="#C6_0_fd539fed8e" x="288.446204" y="174.628772" style="fill: #333333; fill-opacity: 0.4" />
    </g>
   <g id="text_25">
    <text style="font-weight: 700; font-size: 9px; font-family: 'Liberation Sans', 'Arial', 'Helvetica', 'Nimbus Sans', 'DejaVu Sans', sans-serif; text-anchor: start" x="223.524308" y="21.420168" transform="rotate(-0 223.524308 21.420168)">b</text>
   </g>
   <g id="text_26">
    <text style="font-size: 8px; font-family: 'Liberation Sans', 'Arial', 'Helvetica', 'Nimbus Sans', 'DejaVu Sans', sans-serif; text-anchor: start" x="223.524308" y="33.287668" transform="rotate(-0 223.524308 33.287668)">Error</text>
   </g>
   <g id="line2d_28">
    <path d="M 230.978871 56.362821  L 258.235802 56.362821  " style="fill: none; stroke: #0072b2; stroke-width: 1.5; stroke-linecap: square" />
   </g>
   <g id="line2d_29">
    <path d="M 317.311998 94.513128  L 370.591087 94.513128  " style="fill: none; stroke: #777777; stroke-width: 1.5; stroke-linecap: square" />
   </g>
   <g id="line2d_30">
    <path d="M 275.247237 132.663435  L 332.10607 132.663435  " style="fill: none; stroke: #d55e00; stroke-width: 1.5; stroke-linecap: square" />
   </g>
   <g id="line2d_31">
    <path d="M 279.670498 170.813742  L 300.817258 170.813742  " style="fill: none; stroke: #333333; stroke-width: 1.5; stroke-linecap: square" />
   </g>
   <g id="PathCollection_11">
    <use xlink:href="#me4130cec39" x="238.65641" y="56.362821" style="fill: #0072b2; stroke: #0072b2; stroke-width: 0.6" />
    </g>
   <g id="PathCollection_12">
    <use xlink:href="#m0982e22056" x="345.91253" y="94.513128" style="fill: #777777; stroke: #777777; stroke-width: 0.6" />
    </g>
   <g id="PathCollection_13">
    <use xlink:href="#m9ef0449227" x="290.410418" y="132.663435" style="fill: #d55e00; stroke: #d55e00; stroke-width: 0.6" />
    </g>
   <g id="PathCollection_14">
    <defs>
     <path id="ma350ed0578" d="M -0 2.828427  L 2.828427 0  L 0 -2.828427  L -2.828427 -0  z " style="stroke: #333333; stroke-width: 0.6" />
    </defs>
    <use xlink:href="#ma350ed0578" x="288.446204" y="170.813742" style="fill: #333333; stroke: #333333; stroke-width: 0.6" />
    </g>
  </g>
  <g id="text_27">
   <text style="font-size: 8px; font-family: 'Liberation Sans', 'Arial', 'Helvetica', 'Nimbus Sans', 'DejaVu Sans', sans-serif; text-anchor: middle" x="196.43976" y="7.2375" transform="rotate(-0 196.43976 7.2375)">Leave-one-replicate-out, seen perturbations</text>
  </g>
 <defs>
  </defs>
</svg>